<svg width="20" height="19" viewBox="0 0 20 19" fill="none" xmlns="http://www.w3.org/2000/svg">
<path d="M12.7692 8.16661C14.681 8.16661 16.2308 6.67424 16.2308 4.83331C16.2308 2.99237 14.681 1.5 12.7692 1.5M16.2308 17.5H19V16.7771C18.9889 15.7608 18.7106 14.7638 18.191 13.8792C17.6713 12.9946 16.9274 12.2513 16.0285 11.7186C15.4475 11.3743 14.8139 11.1253 14.1538 10.9793M7.23077 8.16661C9.14252 8.16661 10.6923 6.67424 10.6923 4.83331C10.6923 2.99237 9.14252 1.5 7.23077 1.5C5.31902 1.5 3.76923 2.99237 3.76923 4.83331C3.76923 6.67424 5.31902 8.16661 7.23077 8.16661ZM1 17.4999H13.4615V16.7771C13.4505 15.7608 13.1722 14.7638 12.6526 13.8792C12.1329 12.9946 11.3889 12.2512 10.4901 11.7186C9.59119 11.1859 8.5668 10.8814 7.51257 10.8333C7.41858 10.829 7.32462 10.8268 7.23077 10.8266C7.13692 10.8268 7.04296 10.829 6.94897 10.8333C5.89474 10.8814 4.87035 11.1859 3.97148 11.7186C3.07263 12.2512 2.32864 12.9946 1.80899 13.8792C1.28935 14.7638 1.01102 15.7608 1 16.7771V17.4999Z" stroke="#5C5F6A" stroke-width="1.42857" stroke-linecap="round" stroke-linejoin="round"/>
</svg>
