<svg width="18" height="17" viewBox="0 0 18 17" fill="none" xmlns="http://www.w3.org/2000/svg">
<path d="M15.9231 7.92308H11.3077C10.9891 7.92308 10.7308 8.18138 10.7308 8.5V15.4231C10.7308 15.7417 10.9891 16 11.3077 16H15.9231C16.2417 16 16.5 15.7417 16.5 15.4231V8.5C16.5 8.18138 16.2417 7.92308 15.9231 7.92308Z" stroke="#0E1422" stroke-width="1.43" stroke-linecap="round" stroke-linejoin="round"/>
<path d="M15.9231 1H11.3077C10.9891 1 10.7308 1.2583 10.7308 1.57692V3.89615C10.7308 4.21478 10.9891 4.47308 11.3077 4.47308H15.9231C16.2417 4.47308 16.5 4.21478 16.5 3.89615V1.57692C16.5 1.2583 16.2417 1 15.9231 1Z" stroke="#0E1422" stroke-width="1.43" stroke-linecap="round" stroke-linejoin="round"/>
<path d="M6.69231 1H2.07692C1.7583 1 1.5 1.2583 1.5 1.57692V8.5C1.5 8.81862 1.7583 9.07692 2.07692 9.07692H6.69231C7.01093 9.07692 7.26923 8.81862 7.26923 8.5V1.57692C7.26923 1.2583 7.01093 1 6.69231 1Z" stroke="#0E1422" stroke-width="1.43" stroke-linecap="round" stroke-linejoin="round"/>
<path d="M6.69231 12.5269H2.07692C1.7583 12.5269 1.5 12.7852 1.5 13.1038V15.4231C1.5 15.7417 1.7583 16 2.07692 16H6.69231C7.01093 16 7.26923 15.7417 7.26923 15.4231V13.1038C7.26923 12.7852 7.01093 12.5269 6.69231 12.5269Z" stroke="#0E1422" stroke-width="1.43" stroke-linecap="round" stroke-linejoin="round"/>
</svg>
