<svg width="18" height="19" viewBox="0 0 18 19" fill="none" xmlns="http://www.w3.org/2000/svg">
<path d="M6.62731 3.28846L7.20372 1.83692C7.30093 1.59116 7.47197 1.37977 7.69441 1.23043C7.91687 1.0811 8.18035 1.00078 8.45038 1H9.54959C9.81962 1.00078 10.0831 1.0811 10.3056 1.23043C10.528 1.37977 10.699 1.59116 10.7962 1.83692L11.3727 3.28846L13.3297 4.38692L14.9115 4.15154C15.1749 4.11666 15.443 4.15895 15.6818 4.27305C15.9204 4.38715 16.1189 4.56788 16.252 4.79231L16.7882 5.70769C16.9256 5.93569 16.989 6.19897 16.9698 6.46278C16.9507 6.72659 16.85 6.97855 16.681 7.18539L15.7024 8.40154V10.5985L16.7078 11.8146C16.8768 12.0215 16.9775 12.2734 16.9966 12.5372C17.0158 12.801 16.9524 13.0643 16.815 13.2923L16.2788 14.2077C16.1457 14.4321 15.9472 14.6128 15.7086 14.727C15.4698 14.841 15.2017 14.8834 14.9383 14.8485L13.3565 14.6131L11.3995 15.7115L10.8231 17.1631C10.7258 17.4088 10.5548 17.6202 10.3324 17.7696C10.1099 17.9189 9.84643 17.9992 9.5764 18H8.45038C8.18035 17.9992 7.91687 17.9189 7.69441 17.7696C7.47197 17.6202 7.30093 17.4088 7.20372 17.1631L6.62731 15.7115L4.67019 14.6131L3.08841 14.8485C2.82502 14.8834 2.55695 14.841 2.31826 14.727C2.07959 14.6128 1.88106 14.4321 1.74791 14.2077L1.21171 13.2923C1.07431 13.0643 1.01101 12.801 1.03016 12.5372C1.0493 12.2734 1.15 12.0215 1.31895 11.8146L2.29751 10.5985V8.40154L1.29214 7.18539C1.12319 6.97855 1.02249 6.72659 1.00335 6.46278C0.984204 6.19897 1.0475 5.93569 1.1849 5.70769L1.7211 4.79231C1.85425 4.56788 2.05278 4.38715 2.29145 4.27305C2.53014 4.15895 2.79821 4.11666 3.0616 4.15154L4.64338 4.38692L6.62731 3.28846ZM6.319 9.5C6.319 10.0173 6.47624 10.5229 6.77082 10.953C7.06542 11.3831 7.48413 11.7183 7.97401 11.9163C8.46391 12.1142 9.00296 12.166 9.52302 12.0651C10.0431 11.9642 10.5208 11.7151 10.8957 11.3494C11.2707 10.9836 11.526 10.5176 11.6295 10.0102C11.7329 9.5029 11.6798 8.97704 11.4769 8.49913C11.274 8.02124 10.9304 7.61276 10.4895 7.32539C10.0486 7.03801 9.53023 6.88462 8.99998 6.88462C8.28895 6.88462 7.60702 7.16016 7.10424 7.65065C6.60147 8.14113 6.319 8.80636 6.319 9.5Z" stroke="#5C5F6A" stroke-width="1.42857" stroke-linecap="round" stroke-linejoin="round"/>
</svg>
