<svg width="24" height="25" viewBox="0 0 24 25" fill="none" xmlns="http://www.w3.org/2000/svg">
<path d="M14.8571 16.5V18.7857C14.8571 19.0888 14.7367 19.3795 14.5224 19.5938C14.3081 19.8081 14.0174 19.9286 13.7143 19.9286H5.71427C5.41116 19.9286 5.12047 19.8081 4.90615 19.5938C4.69182 19.3795 4.57141 19.0888 4.57141 18.7857V6.21427C4.57141 5.91116 4.69182 5.62047 4.90615 5.40615C5.12047 5.19182 5.41116 5.07141 5.71427 5.07141H13.7143C14.0174 5.07141 14.3081 5.19182 14.5224 5.40615C14.7367 5.62047 14.8571 5.91116 14.8571 6.21427V8.49998M11.4286 12.5H19.4286M19.4286 12.5L17.1428 10.2143M19.4286 12.5L17.1428 14.7857" stroke="#5C5F6A" stroke-width="1.43" stroke-linecap="round" stroke-linejoin="round"/>
</svg>
